<?xml version="1.0" standalone="no"?>
<!DOCTYPE svg PUBLIC "-//W3C//DTD SVG 20010904//EN"
 "http://www.w3.org/TR/2001/REC-SVG-20010904/DTD/svg10.dtd">
<svg version="1.0" xmlns="http://www.w3.org/2000/svg"
 width="2048.000000pt" height="2048.000000pt" viewBox="0 0 2048.000000 2048.000000"
 preserveAspectRatio="xMidYMid meet">

<g transform="translate(0.000000,2048.000000) scale(0.100000,-0.100000)"
fill="#000000" stroke="none">
<path d="M6495 12311 c-59 -16 -85 -31 -129 -72 -136 -124 -94 -376 73 -448
49 -21 50 -22 56 -73 4 -29 5 -196 3 -371 l-3 -318 -60 -52 c-33 -29 -123
-110 -201 -182 -78 -71 -239 -218 -357 -325 -118 -107 -215 -199 -215 -205 0
-5 70 -73 157 -150 87 -77 238 -214 337 -305 98 -91 216 -199 262 -240 l82
-74 0 -373 0 -373 -49 -24 c-69 -35 -103 -67 -136 -128 -26 -46 -30 -63 -30
-128 0 -62 5 -84 27 -126 114 -218 447 -188 515 45 38 133 -30 281 -152 332
l-55 23 0 1512 0 1512 34 12 c91 30 169 127 182 226 13 111 -48 228 -146 276
-59 30 -146 42 -195 29z"/>
<path d="M4937 11502 l-287 -287 402 -392 c222 -215 416 -401 431 -413 l28
-22 87 84 c48 46 176 168 285 272 108 104 197 194 197 201 0 10 -831 837 -848
843 -4 1 -137 -127 -295 -286z"/>
<path d="M16033 11039 c-43 -21 -83 -82 -83 -125 1 -45 38 -103 81 -125 141
-71 284 93 187 216 -43 55 -116 69 -185 34z m112 -13 c89 -38 100 -158 18
-206 -113 -67 -239 62 -156 161 24 28 72 57 96 59 4 0 23 -6 42 -14z"/>
<path d="M16058 10993 c-29 -4 -36 -17 -17 -29 7 -4 9 -25 4 -59 -4 -36 -2
-55 6 -60 14 -9 29 13 22 32 -3 7 3 16 12 19 12 5 25 -3 42 -25 32 -41 46 -40
28 4 -11 25 -12 41 -5 61 17 43 -24 68 -92 57z m61 -32 c19 -12 6 -41 -18 -41
-17 0 -31 18 -31 41 0 11 31 11 49 0z"/>
<path d="M7830 10195 l0 -835 130 0 130 0 2 605 3 605 255 -508 255 -507 95
-2 95 -3 250 511 c138 281 253 513 258 515 4 3 7 -270 7 -605 l0 -611 130 0
130 0 0 835 0 835 -165 -2 -165 -3 -166 -350 c-91 -192 -208 -442 -261 -555
-53 -113 -99 -208 -102 -211 -3 -4 -43 70 -88 165 -46 94 -169 348 -275 563
l-193 393 -162 0 -163 0 0 -835z"/>
<path d="M9952 10195 l0 -835 574 0 575 0 -3 120 -3 121 -432 -1 -433 0 0 250
0 250 370 0 370 0 0 115 0 115 -370 0 -370 0 0 223 0 224 212 6 c116 4 306 7
422 7 l211 0 -1 43 c0 23 -1 77 -2 120 l-2 77 -559 0 -559 0 0 -835z"/>
<path d="M11370 10195 l0 -835 308 0 c412 0 536 19 714 112 351 181 502 648
344 1058 -90 232 -246 376 -491 453 -121 38 -231 47 -567 47 l-308 0 0 -835z
m713 569 c113 -25 193 -68 268 -143 110 -111 162 -247 162 -426 0 -180 -52
-316 -162 -425 -131 -129 -231 -160 -513 -160 l-188 0 0 585 0 585 181 0 c129
0 201 -5 252 -16z"/>
<path d="M13070 10195 l0 -835 575 0 575 0 0 120 0 120 -435 0 -435 0 0 250 0
250 370 0 370 0 0 115 0 115 -370 0 -370 0 0 225 0 225 273 0 c151 0 341 3
423 6 l149 7 -3 118 -3 119 -560 0 -559 0 0 -835z"/>
<path d="M14403 10953 c127 -184 468 -684 486 -714 l20 -33 -96 -140 c-53 -78
-184 -266 -290 -418 -106 -153 -193 -280 -193 -283 0 -3 73 -4 161 -3 l162 3
211 317 c116 174 213 317 216 317 3 0 99 -144 214 -320 l209 -319 163 0 c90 0
164 3 164 6 0 4 -55 86 -122 183 -520 751 -465 664 -443 698 10 16 99 144 199
286 100 142 218 312 263 378 l82 119 -159 0 -158 0 -39 -57 c-21 -32 -112
-168 -202 -301 -133 -198 -166 -241 -176 -230 -11 12 -259 390 -348 531 l-37
57 -170 0 -170 0 53 -77z"/>
<path d="M4488 10440 c-56 -30 -82 -73 -86 -145 -4 -77 23 -128 88 -163 36
-19 54 -23 94 -18 61 7 121 45 143 91 l17 35 352 0 353 0 7 45 c12 81 38 76
-362 75 l-356 -1 -23 34 c-45 65 -150 87 -227 47z"/>
<path d="M5077 9727 l-428 -422 430 -430 431 -430 291 290 c160 160 353 356
430 436 l139 146 -426 414 c-234 228 -429 415 -433 416 -3 1 -199 -188 -434
-420z"/>
</g>
</svg>
